<svg xmlns="http://www.w3.org/2000/svg" xmlns:xlink="http://www.w3.org/1999/xlink" width="144" zoomAndPan="magnify" viewBox="0 0 108 32.999998" height="44" preserveAspectRatio="xMidYMid meet" version="1.0"><defs><g/><clipPath id="c7c2cfc772"><rect x="0" width="102" y="0" height="23"/></clipPath><clipPath id="5c159d07a2"><path d="M 0.398438 0.199219 L 4 0.199219 L 4 3 L 0.398438 3 Z M 0.398438 0.199219 " clip-rule="nonzero"/></clipPath><clipPath id="e803e122bd"><path d="M 4 0.199219 L 6 0.199219 L 6 3 L 4 3 Z M 4 0.199219 " clip-rule="nonzero"/></clipPath><clipPath id="beb546126f"><path d="M 11 0.199219 L 13 0.199219 L 13 3 L 11 3 Z M 11 0.199219 " clip-rule="nonzero"/></clipPath><clipPath id="51c72957c5"><path d="M 20 0.199219 L 23 0.199219 L 23 3 L 20 3 Z M 20 0.199219 " clip-rule="nonzero"/></clipPath><clipPath id="de94339d92"><path d="M 22 0.199219 L 24 0.199219 L 24 3 L 22 3 Z M 22 0.199219 " clip-rule="nonzero"/></clipPath><clipPath id="53207db88a"><path d="M 28 0.199219 L 31 0.199219 L 31 3 L 28 3 Z M 28 0.199219 " clip-rule="nonzero"/></clipPath><clipPath id="633c40a3ac"><path d="M 31 0.199219 L 32 0.199219 L 32 3 L 31 3 Z M 31 0.199219 " clip-rule="nonzero"/></clipPath><clipPath id="e2508bd993"><path d="M 34 0.199219 L 37 0.199219 L 37 3 L 34 3 Z M 34 0.199219 " clip-rule="nonzero"/></clipPath><clipPath id="4887671551"><path d="M 41 0.199219 L 43 0.199219 L 43 3 L 41 3 Z M 41 0.199219 " clip-rule="nonzero"/></clipPath><clipPath id="ec9273974f"><path d="M 42 2 L 43.601562 2 L 43.601562 3 L 42 3 Z M 42 2 " clip-rule="nonzero"/></clipPath><clipPath id="25aefb9157"><rect x="0" width="44" y="0" height="5"/></clipPath></defs><g transform="matrix(1, 0, 0, 1, 3, 5)"><g clip-path="url(#c7c2cfc772)"><g fill="#000000" fill-opacity="1"><g transform="translate(0.948177, 16.84293)"><g><path d="M 0.703125 -11.4375 L 0.421875 -11.4375 L 1.125 -15.4375 L 14.546875 -15.4375 L 15.25 -11.4375 L 14.96875 -11.4375 C 14.800781 -12.375 14.507812 -13.113281 14.09375 -13.65625 C 13.6875 -14.207031 13.179688 -14.59375 12.578125 -14.8125 C 11.972656 -15.039062 11.285156 -15.15625 10.515625 -15.15625 L 9 -15.15625 L 9 -1.421875 C 9 -0.941406 9.117188 -0.628906 9.359375 -0.484375 C 9.597656 -0.347656 9.972656 -0.28125 10.484375 -0.28125 L 10.484375 0 L 5.203125 0 L 5.203125 -0.28125 C 5.710938 -0.28125 6.082031 -0.347656 6.3125 -0.484375 C 6.550781 -0.628906 6.671875 -0.941406 6.671875 -1.421875 L 6.671875 -15.15625 L 5.125 -15.15625 C 4.375 -15.15625 3.695312 -15.039062 3.09375 -14.8125 C 2.488281 -14.59375 1.984375 -14.207031 1.578125 -13.65625 C 1.171875 -13.113281 0.878906 -12.375 0.703125 -11.4375 Z M 0.703125 -11.4375 "/></g></g></g><g fill="#000000" fill-opacity="1"><g transform="translate(16.611445, 16.84293)"><g><path d="M 0.640625 0 L 0.640625 -0.28125 C 1.128906 -0.28125 1.492188 -0.347656 1.734375 -0.484375 C 1.972656 -0.628906 2.09375 -0.941406 2.09375 -1.421875 L 2.09375 -14.015625 C 2.09375 -14.503906 1.972656 -14.816406 1.734375 -14.953125 C 1.492188 -15.085938 1.128906 -15.15625 0.640625 -15.15625 L 0.640625 -15.4375 L 6.640625 -15.4375 C 7.429688 -15.4375 8.203125 -15.394531 8.953125 -15.3125 C 9.710938 -15.238281 10.398438 -15.070312 11.015625 -14.8125 C 11.628906 -14.5625 12.117188 -14.1875 12.484375 -13.6875 C 12.859375 -13.1875 13.046875 -12.515625 13.046875 -11.671875 C 13.046875 -10.835938 12.875 -10.164062 12.53125 -9.65625 C 12.195312 -9.144531 11.75 -8.753906 11.1875 -8.484375 C 10.632812 -8.222656 10.03125 -8.046875 9.375 -7.953125 C 8.726562 -7.859375 8.09375 -7.8125 7.46875 -7.8125 L 6.578125 -7.8125 C 6.867188 -7.375 7.1875 -7.050781 7.53125 -6.84375 C 7.875 -6.644531 8.210938 -6.546875 8.546875 -6.546875 C 8.941406 -6.546875 9.3125 -6.675781 9.65625 -6.9375 L 13.46875 -1.421875 C 13.789062 -0.960938 14.128906 -0.65625 14.484375 -0.5 C 14.835938 -0.351562 15.210938 -0.28125 15.609375 -0.28125 L 15.609375 0 L 13.5 0 C 12.925781 0 12.421875 -0.117188 11.984375 -0.359375 C 11.554688 -0.609375 11.179688 -0.921875 10.859375 -1.296875 C 10.535156 -1.671875 10.238281 -2.050781 9.96875 -2.4375 L 6.265625 -7.8125 L 4.421875 -7.8125 L 4.421875 -1.421875 C 4.421875 -0.941406 4.535156 -0.628906 4.765625 -0.484375 C 5.003906 -0.347656 5.378906 -0.28125 5.890625 -0.28125 L 5.890625 0 Z M 4.421875 -8.09375 L 6.671875 -8.09375 C 7.421875 -8.09375 8.101562 -8.191406 8.71875 -8.390625 C 9.332031 -8.585938 9.820312 -8.941406 10.1875 -9.453125 C 10.550781 -9.960938 10.734375 -10.691406 10.734375 -11.640625 C 10.734375 -12.785156 10.414062 -13.65625 9.78125 -14.25 C 9.144531 -14.851562 8.242188 -15.15625 7.078125 -15.15625 L 4.421875 -15.15625 Z M 4.421875 -8.09375 "/></g></g></g><g fill="#000000" fill-opacity="1"><g transform="translate(32.422882, 16.84293)"><g><path d="M 2.09375 -1.421875 L 2.09375 -14.015625 C 2.09375 -14.503906 1.972656 -14.816406 1.734375 -14.953125 C 1.503906 -15.085938 1.140625 -15.15625 0.640625 -15.15625 L 0.640625 -15.4375 L 5.90625 -15.4375 L 5.90625 -15.15625 C 5.394531 -15.15625 5.019531 -15.085938 4.78125 -14.953125 C 4.539062 -14.816406 4.421875 -14.503906 4.421875 -14.015625 L 4.421875 -1.421875 C 4.421875 -0.921875 4.539062 -0.601562 4.78125 -0.46875 C 5.019531 -0.34375 5.390625 -0.28125 5.890625 -0.28125 L 5.90625 0 L 0.640625 0 L 0.640625 -0.28125 C 1.140625 -0.28125 1.503906 -0.34375 1.734375 -0.46875 C 1.972656 -0.601562 2.09375 -0.921875 2.09375 -1.421875 Z M 2.09375 -1.421875 "/></g></g></g><g fill="#000000" fill-opacity="1"><g transform="translate(38.963357, 16.84293)"><g><path d="M 0.3125 -15.4375 L 6.1875 -15.4375 L 6.1875 -15.1875 C 5.476562 -15.1875 5 -15.117188 4.75 -14.984375 C 4.5 -14.859375 4.488281 -14.554688 4.71875 -14.078125 L 10.125 -2.921875 L 13.96875 -13.90625 C 14.125 -14.363281 14.125 -14.6875 13.96875 -14.875 C 13.8125 -15.0625 13.40625 -15.15625 12.75 -15.15625 L 12.75 -15.4375 L 16.203125 -15.4375 L 16.203125 -15.15625 C 15.609375 -15.15625 15.175781 -15.070312 14.90625 -14.90625 C 14.632812 -14.738281 14.414062 -14.398438 14.25 -13.890625 L 9.375 0 L 9.0625 0.25 L 2.21875 -13.90625 C 2 -14.40625 1.769531 -14.738281 1.53125 -14.90625 C 1.300781 -15.070312 0.894531 -15.15625 0.3125 -15.15625 Z M 0.3125 -15.4375 "/></g></g></g><g fill="#000000" fill-opacity="1"><g transform="translate(53.441241, 16.84293)"><g><path d="M 3.625 0 L 0.3125 0 L 0.3125 -0.28125 C 0.664062 -0.28125 1.019531 -0.40625 1.375 -0.65625 C 1.738281 -0.90625 2 -1.222656 2.15625 -1.609375 L 6.78125 -12.65625 L 6.1875 -14.09375 C 6.007812 -14.519531 5.742188 -14.800781 5.390625 -14.9375 C 5.046875 -15.082031 4.660156 -15.15625 4.234375 -15.15625 L 4.234375 -15.4375 L 7.9375 -15.4375 L 13.5 -2.140625 C 13.800781 -1.441406 14.128906 -0.957031 14.484375 -0.6875 C 14.847656 -0.414062 15.289062 -0.28125 15.8125 -0.28125 L 15.8125 0 L 9.859375 0 L 9.859375 -0.28125 L 10.4375 -0.28125 C 10.988281 -0.28125 11.300781 -0.457031 11.375 -0.8125 C 11.457031 -1.175781 11.390625 -1.609375 11.171875 -2.109375 L 9.96875 -5.0625 L 3.875 -5.0625 L 2.484375 -1.6875 C 2.296875 -1.238281 2.328125 -0.890625 2.578125 -0.640625 C 2.835938 -0.398438 3.1875 -0.28125 3.625 -0.28125 Z M 6.921875 -12.34375 L 4 -5.328125 L 9.84375 -5.328125 Z M 6.921875 -12.34375 "/></g></g></g><g fill="#000000" fill-opacity="1"><g transform="translate(69.570175, 16.84293)"><g><path d="M 3.625 0 L 0.3125 0 L 0.3125 -0.28125 C 0.664062 -0.28125 1.019531 -0.40625 1.375 -0.65625 C 1.738281 -0.90625 2 -1.222656 2.15625 -1.609375 L 6.78125 -12.65625 L 6.1875 -14.09375 C 6.007812 -14.519531 5.742188 -14.800781 5.390625 -14.9375 C 5.046875 -15.082031 4.660156 -15.15625 4.234375 -15.15625 L 4.234375 -15.4375 L 7.9375 -15.4375 L 13.5 -2.140625 C 13.800781 -1.441406 14.128906 -0.957031 14.484375 -0.6875 C 14.847656 -0.414062 15.289062 -0.28125 15.8125 -0.28125 L 15.8125 0 L 9.859375 0 L 9.859375 -0.28125 L 10.4375 -0.28125 C 10.988281 -0.28125 11.300781 -0.457031 11.375 -0.8125 C 11.457031 -1.175781 11.390625 -1.609375 11.171875 -2.109375 L 9.96875 -5.0625 L 3.875 -5.0625 L 2.484375 -1.6875 C 2.296875 -1.238281 2.328125 -0.890625 2.578125 -0.640625 C 2.835938 -0.398438 3.1875 -0.28125 3.625 -0.28125 Z M 6.921875 -12.34375 L 4 -5.328125 L 9.84375 -5.328125 Z M 6.921875 -12.34375 "/></g></g></g><g fill="#000000" fill-opacity="1"><g transform="translate(85.699113, 16.84293)"><g><path d="M 0.640625 0 L 0.640625 -0.28125 C 1.140625 -0.28125 1.503906 -0.34375 1.734375 -0.46875 C 1.972656 -0.601562 2.09375 -0.921875 2.09375 -1.421875 L 2.09375 -14.015625 C 2.09375 -14.503906 1.972656 -14.816406 1.734375 -14.953125 C 1.503906 -15.085938 1.140625 -15.15625 0.640625 -15.15625 L 0.640625 -15.4375 L 5.890625 -15.4375 L 5.890625 -15.15625 C 5.390625 -15.15625 5.023438 -15.09375 4.796875 -14.96875 C 4.566406 -14.84375 4.441406 -14.546875 4.421875 -14.078125 L 4.421875 -8.09375 L 10.921875 -8.09375 L 10.921875 -14.015625 C 10.921875 -14.503906 10.800781 -14.816406 10.5625 -14.953125 C 10.320312 -15.085938 9.945312 -15.15625 9.4375 -15.15625 L 9.4375 -15.4375 L 14.71875 -15.4375 L 14.71875 -15.15625 C 14.207031 -15.15625 13.832031 -15.085938 13.59375 -14.953125 C 13.363281 -14.816406 13.25 -14.503906 13.25 -14.015625 L 13.25 -1.375 C 13.25 -0.894531 13.363281 -0.59375 13.59375 -0.46875 C 13.832031 -0.34375 14.207031 -0.28125 14.71875 -0.28125 L 14.71875 0 L 9.4375 0 L 9.4375 -0.28125 C 9.945312 -0.28125 10.320312 -0.34375 10.5625 -0.46875 C 10.800781 -0.601562 10.921875 -0.921875 10.921875 -1.421875 L 10.921875 -7.8125 L 4.421875 -7.8125 L 4.421875 -1.203125 C 4.453125 -0.804688 4.585938 -0.550781 4.828125 -0.4375 C 5.066406 -0.332031 5.421875 -0.28125 5.890625 -0.28125 L 5.890625 0 Z M 0.640625 0 "/></g></g></g></g></g><g transform="matrix(1, 0, 0, 1, 32, 25)"><g clip-path="url(#25aefb9157)"><g clip-path="url(#5c159d07a2)"><g fill="#000000" fill-opacity="1"><g transform="translate(0.573805, 2.906247)"><g><path d="M 0.03125 -2.328125 L 0.328125 -2.40625 L 0.90625 -0.375 L 0.921875 -0.375 L 1.546875 -2.359375 L 1.859375 -2.359375 L 2.4375 -0.375 L 3.09375 -2.40625 L 3.375 -2.328125 L 2.578125 0 L 2.296875 0 L 1.6875 -1.984375 L 1.03125 0 L 0.765625 0 Z M 0.03125 -2.328125 "/></g></g></g></g><g clip-path="url(#e803e122bd)"><g fill="#000000" fill-opacity="1"><g transform="translate(3.976184, 2.906247)"><g><path d="M 0.265625 -2.5625 L 0.5625 -2.5625 L 0.546875 -1.4375 C 0.617188 -1.53125 0.707031 -1.601562 0.8125 -1.65625 C 0.914062 -1.71875 1.019531 -1.75 1.125 -1.75 C 1.289062 -1.75 1.414062 -1.707031 1.5 -1.625 C 1.59375 -1.539062 1.640625 -1.40625 1.640625 -1.21875 C 1.640625 -1.207031 1.640625 -1.195312 1.640625 -1.1875 C 1.640625 -1.175781 1.640625 -1.148438 1.640625 -1.109375 C 1.640625 -1.078125 1.632812 -1.019531 1.625 -0.9375 C 1.625 -0.851562 1.625 -0.734375 1.625 -0.578125 C 1.625 -0.429688 1.625 -0.238281 1.625 0 L 1.359375 0 L 1.359375 -1.1875 C 1.359375 -1.289062 1.335938 -1.367188 1.296875 -1.421875 C 1.253906 -1.472656 1.171875 -1.5 1.046875 -1.5 C 0.878906 -1.5 0.710938 -1.394531 0.546875 -1.1875 L 0.53125 0 L 0.265625 0 Z M 0.265625 -2.5625 "/></g></g></g></g><g fill="#000000" fill-opacity="1"><g transform="translate(5.867907, 2.906247)"><g><path d="M 1.5625 -0.890625 L 0.421875 -0.890625 L 0.421875 -0.84375 C 0.421875 -0.613281 0.460938 -0.441406 0.546875 -0.328125 C 0.640625 -0.210938 0.757812 -0.15625 0.90625 -0.15625 C 0.988281 -0.15625 1.0625 -0.171875 1.125 -0.203125 C 1.195312 -0.242188 1.253906 -0.28125 1.296875 -0.3125 C 1.347656 -0.351562 1.378906 -0.382812 1.390625 -0.40625 L 1.53125 -0.25 C 1.445312 -0.164062 1.347656 -0.09375 1.234375 -0.03125 C 1.117188 0.0195312 1 0.046875 0.875 0.046875 C 0.644531 0.046875 0.460938 -0.03125 0.328125 -0.1875 C 0.203125 -0.351562 0.140625 -0.570312 0.140625 -0.84375 C 0.140625 -1.007812 0.171875 -1.160156 0.234375 -1.296875 C 0.304688 -1.429688 0.398438 -1.539062 0.515625 -1.625 C 0.628906 -1.707031 0.757812 -1.75 0.90625 -1.75 C 1.113281 -1.75 1.273438 -1.675781 1.390625 -1.53125 C 1.503906 -1.394531 1.5625 -1.203125 1.5625 -0.953125 Z M 0.453125 -1.0625 L 1.296875 -1.0625 C 1.296875 -1.21875 1.257812 -1.335938 1.1875 -1.421875 C 1.125 -1.503906 1.03125 -1.546875 0.90625 -1.546875 C 0.800781 -1.546875 0.707031 -1.503906 0.625 -1.421875 C 0.539062 -1.335938 0.484375 -1.21875 0.453125 -1.0625 Z M 0.453125 -1.0625 "/></g></g></g><g fill="#000000" fill-opacity="1"><g transform="translate(7.569096, 2.906247)"><g><path d="M 1.171875 -1.71875 L 1.09375 -1.46875 C 1.070312 -1.46875 1.050781 -1.46875 1.03125 -1.46875 C 1.019531 -1.476562 1.003906 -1.484375 0.984375 -1.484375 C 0.910156 -1.484375 0.832031 -1.445312 0.75 -1.375 C 0.675781 -1.3125 0.609375 -1.222656 0.546875 -1.109375 L 0.53125 0 L 0.265625 0 L 0.265625 -1.703125 L 0.546875 -1.703125 L 0.546875 -1.359375 L 0.5625 -1.359375 C 0.601562 -1.460938 0.664062 -1.550781 0.75 -1.625 C 0.832031 -1.707031 0.925781 -1.75 1.03125 -1.75 C 1.082031 -1.75 1.128906 -1.738281 1.171875 -1.71875 Z M 1.171875 -1.71875 "/></g></g></g><g fill="#000000" fill-opacity="1"><g transform="translate(8.668055, 2.906247)"><g><path d="M 1.5625 -0.890625 L 0.421875 -0.890625 L 0.421875 -0.84375 C 0.421875 -0.613281 0.460938 -0.441406 0.546875 -0.328125 C 0.640625 -0.210938 0.757812 -0.15625 0.90625 -0.15625 C 0.988281 -0.15625 1.0625 -0.171875 1.125 -0.203125 C 1.195312 -0.242188 1.253906 -0.28125 1.296875 -0.3125 C 1.347656 -0.351562 1.378906 -0.382812 1.390625 -0.40625 L 1.53125 -0.25 C 1.445312 -0.164062 1.347656 -0.09375 1.234375 -0.03125 C 1.117188 0.0195312 1 0.046875 0.875 0.046875 C 0.644531 0.046875 0.460938 -0.03125 0.328125 -0.1875 C 0.203125 -0.351562 0.140625 -0.570312 0.140625 -0.84375 C 0.140625 -1.007812 0.171875 -1.160156 0.234375 -1.296875 C 0.304688 -1.429688 0.398438 -1.539062 0.515625 -1.625 C 0.628906 -1.707031 0.757812 -1.75 0.90625 -1.75 C 1.113281 -1.75 1.273438 -1.675781 1.390625 -1.53125 C 1.503906 -1.394531 1.5625 -1.203125 1.5625 -0.953125 Z M 0.453125 -1.0625 L 1.296875 -1.0625 C 1.296875 -1.21875 1.257812 -1.335938 1.1875 -1.421875 C 1.125 -1.503906 1.03125 -1.546875 0.90625 -1.546875 C 0.800781 -1.546875 0.707031 -1.503906 0.625 -1.421875 C 0.539062 -1.335938 0.484375 -1.21875 0.453125 -1.0625 Z M 0.453125 -1.0625 "/></g></g></g><g fill="#000000" fill-opacity="1"><g transform="translate(10.369244, 2.906247)"><g/></g></g><g clip-path="url(#beb546126f)"><g fill="#000000" fill-opacity="1"><g transform="translate(11.315104, 2.906247)"><g><path d="M 0.3125 -2.359375 L 1.515625 -2.359375 L 1.515625 -2.109375 L 0.59375 -2.109375 L 0.59375 -1.3125 L 1.484375 -1.3125 L 1.484375 -1.0625 L 0.59375 -1.0625 L 0.578125 -0.25 L 1.53125 -0.25 L 1.53125 0 L 0.28125 0 Z M 0.3125 -2.359375 "/></g></g></g></g><g fill="#000000" fill-opacity="1"><g transform="translate(13.016293, 2.906247)"><g><path d="M 0.0625 -1.671875 L 0.34375 -1.734375 L 0.828125 -0.328125 L 1.359375 -1.75 L 1.640625 -1.65625 L 0.953125 0 L 0.6875 0 Z M 0.0625 -1.671875 "/></g></g></g><g fill="#000000" fill-opacity="1"><g transform="translate(14.717482, 2.906247)"><g><path d="M 1.5625 -0.890625 L 0.421875 -0.890625 L 0.421875 -0.84375 C 0.421875 -0.613281 0.460938 -0.441406 0.546875 -0.328125 C 0.640625 -0.210938 0.757812 -0.15625 0.90625 -0.15625 C 0.988281 -0.15625 1.0625 -0.171875 1.125 -0.203125 C 1.195312 -0.242188 1.253906 -0.28125 1.296875 -0.3125 C 1.347656 -0.351562 1.378906 -0.382812 1.390625 -0.40625 L 1.53125 -0.25 C 1.445312 -0.164062 1.347656 -0.09375 1.234375 -0.03125 C 1.117188 0.0195312 1 0.046875 0.875 0.046875 C 0.644531 0.046875 0.460938 -0.03125 0.328125 -0.1875 C 0.203125 -0.351562 0.140625 -0.570312 0.140625 -0.84375 C 0.140625 -1.007812 0.171875 -1.160156 0.234375 -1.296875 C 0.304688 -1.429688 0.398438 -1.539062 0.515625 -1.625 C 0.628906 -1.707031 0.757812 -1.75 0.90625 -1.75 C 1.113281 -1.75 1.273438 -1.675781 1.390625 -1.53125 C 1.503906 -1.394531 1.5625 -1.203125 1.5625 -0.953125 Z M 0.453125 -1.0625 L 1.296875 -1.0625 C 1.296875 -1.21875 1.257812 -1.335938 1.1875 -1.421875 C 1.125 -1.503906 1.03125 -1.546875 0.90625 -1.546875 C 0.800781 -1.546875 0.707031 -1.503906 0.625 -1.421875 C 0.539062 -1.335938 0.484375 -1.21875 0.453125 -1.0625 Z M 0.453125 -1.0625 "/></g></g></g><g fill="#000000" fill-opacity="1"><g transform="translate(16.418672, 2.906247)"><g><path d="M 1.171875 -1.71875 L 1.09375 -1.46875 C 1.070312 -1.46875 1.050781 -1.46875 1.03125 -1.46875 C 1.019531 -1.476562 1.003906 -1.484375 0.984375 -1.484375 C 0.910156 -1.484375 0.832031 -1.445312 0.75 -1.375 C 0.675781 -1.3125 0.609375 -1.222656 0.546875 -1.109375 L 0.53125 0 L 0.265625 0 L 0.265625 -1.703125 L 0.546875 -1.703125 L 0.546875 -1.359375 L 0.5625 -1.359375 C 0.601562 -1.460938 0.664062 -1.550781 0.75 -1.625 C 0.832031 -1.707031 0.925781 -1.75 1.03125 -1.75 C 1.082031 -1.75 1.128906 -1.738281 1.171875 -1.71875 Z M 1.171875 -1.71875 "/></g></g></g><g fill="#000000" fill-opacity="1"><g transform="translate(17.551664, 2.906247)"><g><path d="M 0.078125 -1.65625 L 0.375 -1.75 L 0.84375 -0.359375 L 1.359375 -1.75 L 1.625 -1.65625 L 0.875 0.203125 C 0.820312 0.335938 0.769531 0.441406 0.71875 0.515625 C 0.675781 0.597656 0.628906 0.660156 0.578125 0.703125 C 0.535156 0.742188 0.476562 0.769531 0.40625 0.78125 C 0.34375 0.789062 0.265625 0.796875 0.171875 0.796875 L 0.109375 0.796875 L 0.109375 0.59375 L 0.15625 0.59375 C 0.257812 0.59375 0.335938 0.570312 0.390625 0.53125 C 0.441406 0.5 0.476562 0.460938 0.5 0.421875 C 0.519531 0.367188 0.546875 0.304688 0.578125 0.234375 C 0.609375 0.171875 0.648438 0.0820312 0.703125 -0.03125 Z M 0.078125 -1.65625 "/></g></g></g><g fill="#000000" fill-opacity="1"><g transform="translate(19.252854, 2.906247)"><g/></g></g><g clip-path="url(#51c72957c5)"><g fill="#000000" fill-opacity="1"><g transform="translate(20.198713, 2.906247)"><g><path d="M 0.046875 -2.359375 L 1.84375 -2.359375 L 1.84375 -2.109375 L 1.09375 -2.109375 L 1.078125 0 L 0.78125 0 L 0.796875 -2.109375 L 0.046875 -2.109375 Z M 0.046875 -2.359375 "/></g></g></g></g><g clip-path="url(#de94339d92)"><g fill="#000000" fill-opacity="1"><g transform="translate(22.090436, 2.906247)"><g><path d="M 0.265625 -2.5625 L 0.5625 -2.5625 L 0.546875 -1.4375 C 0.617188 -1.53125 0.707031 -1.601562 0.8125 -1.65625 C 0.914062 -1.71875 1.019531 -1.75 1.125 -1.75 C 1.289062 -1.75 1.414062 -1.707031 1.5 -1.625 C 1.59375 -1.539062 1.640625 -1.40625 1.640625 -1.21875 C 1.640625 -1.207031 1.640625 -1.195312 1.640625 -1.1875 C 1.640625 -1.175781 1.640625 -1.148438 1.640625 -1.109375 C 1.640625 -1.078125 1.632812 -1.019531 1.625 -0.9375 C 1.625 -0.851562 1.625 -0.734375 1.625 -0.578125 C 1.625 -0.429688 1.625 -0.238281 1.625 0 L 1.359375 0 L 1.359375 -1.1875 C 1.359375 -1.289062 1.335938 -1.367188 1.296875 -1.421875 C 1.253906 -1.472656 1.171875 -1.5 1.046875 -1.5 C 0.878906 -1.5 0.710938 -1.394531 0.546875 -1.1875 L 0.53125 0 L 0.265625 0 Z M 0.265625 -2.5625 "/></g></g></g></g><g fill="#000000" fill-opacity="1"><g transform="translate(23.982159, 2.906247)"><g><path d="M 1.171875 -1.71875 L 1.09375 -1.46875 C 1.070312 -1.46875 1.050781 -1.46875 1.03125 -1.46875 C 1.019531 -1.476562 1.003906 -1.484375 0.984375 -1.484375 C 0.910156 -1.484375 0.832031 -1.445312 0.75 -1.375 C 0.675781 -1.3125 0.609375 -1.222656 0.546875 -1.109375 L 0.53125 0 L 0.265625 0 L 0.265625 -1.703125 L 0.546875 -1.703125 L 0.546875 -1.359375 L 0.5625 -1.359375 C 0.601562 -1.460938 0.664062 -1.550781 0.75 -1.625 C 0.832031 -1.707031 0.925781 -1.75 1.03125 -1.75 C 1.082031 -1.75 1.128906 -1.738281 1.171875 -1.71875 Z M 1.171875 -1.71875 "/></g></g></g><g fill="#000000" fill-opacity="1"><g transform="translate(25.081118, 2.906247)"><g><path d="M 1.5625 -0.890625 L 0.421875 -0.890625 L 0.421875 -0.84375 C 0.421875 -0.613281 0.460938 -0.441406 0.546875 -0.328125 C 0.640625 -0.210938 0.757812 -0.15625 0.90625 -0.15625 C 0.988281 -0.15625 1.0625 -0.171875 1.125 -0.203125 C 1.195312 -0.242188 1.253906 -0.28125 1.296875 -0.3125 C 1.347656 -0.351562 1.378906 -0.382812 1.390625 -0.40625 L 1.53125 -0.25 C 1.445312 -0.164062 1.347656 -0.09375 1.234375 -0.03125 C 1.117188 0.0195312 1 0.046875 0.875 0.046875 C 0.644531 0.046875 0.460938 -0.03125 0.328125 -0.1875 C 0.203125 -0.351562 0.140625 -0.570312 0.140625 -0.84375 C 0.140625 -1.007812 0.171875 -1.160156 0.234375 -1.296875 C 0.304688 -1.429688 0.398438 -1.539062 0.515625 -1.625 C 0.628906 -1.707031 0.757812 -1.75 0.90625 -1.75 C 1.113281 -1.75 1.273438 -1.675781 1.390625 -1.53125 C 1.503906 -1.394531 1.5625 -1.203125 1.5625 -0.953125 Z M 0.453125 -1.0625 L 1.296875 -1.0625 C 1.296875 -1.21875 1.257812 -1.335938 1.1875 -1.421875 C 1.125 -1.503906 1.03125 -1.546875 0.90625 -1.546875 C 0.800781 -1.546875 0.707031 -1.503906 0.625 -1.421875 C 0.539062 -1.335938 0.484375 -1.21875 0.453125 -1.0625 Z M 0.453125 -1.0625 "/></g></g></g><g fill="#000000" fill-opacity="1"><g transform="translate(26.782307, 2.906247)"><g><path d="M 1.390625 -1.296875 C 1.390625 -1.148438 1.382812 -1 1.375 -0.84375 C 1.363281 -0.6875 1.359375 -0.539062 1.359375 -0.40625 C 1.359375 -0.332031 1.363281 -0.269531 1.375 -0.21875 C 1.394531 -0.175781 1.429688 -0.15625 1.484375 -0.15625 C 1.515625 -0.15625 1.539062 -0.160156 1.5625 -0.171875 C 1.582031 -0.179688 1.601562 -0.195312 1.625 -0.21875 L 1.703125 -0.078125 C 1.660156 -0.0351562 1.613281 -0.00390625 1.5625 0.015625 C 1.507812 0.0351562 1.453125 0.046875 1.390625 0.046875 C 1.316406 0.046875 1.253906 0.0195312 1.203125 -0.03125 C 1.160156 -0.09375 1.140625 -0.160156 1.140625 -0.234375 C 1.066406 -0.148438 0.988281 -0.0820312 0.90625 -0.03125 C 0.832031 0.0195312 0.738281 0.046875 0.625 0.046875 C 0.476562 0.046875 0.359375 0 0.265625 -0.09375 C 0.179688 -0.1875 0.140625 -0.300781 0.140625 -0.4375 C 0.140625 -0.625 0.222656 -0.769531 0.390625 -0.875 C 0.566406 -0.976562 0.8125 -1.035156 1.125 -1.046875 L 1.140625 -1.28125 C 1.140625 -1.34375 1.117188 -1.394531 1.078125 -1.4375 C 1.035156 -1.488281 0.96875 -1.515625 0.875 -1.515625 C 0.789062 -1.515625 0.707031 -1.492188 0.625 -1.453125 C 0.550781 -1.410156 0.472656 -1.351562 0.390625 -1.28125 L 0.265625 -1.46875 C 0.359375 -1.519531 0.4375 -1.566406 0.5 -1.609375 C 0.5625 -1.648438 0.628906 -1.679688 0.703125 -1.703125 C 0.773438 -1.734375 0.863281 -1.75 0.96875 -1.75 C 1.101562 -1.75 1.207031 -1.707031 1.28125 -1.625 C 1.351562 -1.550781 1.390625 -1.441406 1.390625 -1.296875 Z M 0.71875 -0.15625 C 0.800781 -0.15625 0.875 -0.179688 0.9375 -0.234375 C 1 -0.285156 1.054688 -0.34375 1.109375 -0.40625 C 1.117188 -0.488281 1.125 -0.566406 1.125 -0.640625 C 1.125 -0.722656 1.125 -0.804688 1.125 -0.890625 C 1.101562 -0.878906 1.066406 -0.867188 1.015625 -0.859375 C 0.972656 -0.859375 0.898438 -0.847656 0.796875 -0.828125 C 0.671875 -0.796875 0.570312 -0.75 0.5 -0.6875 C 0.4375 -0.625 0.40625 -0.546875 0.40625 -0.453125 C 0.40625 -0.347656 0.429688 -0.269531 0.484375 -0.21875 C 0.535156 -0.175781 0.613281 -0.15625 0.71875 -0.15625 Z M 0.71875 -0.15625 "/></g></g></g><g clip-path="url(#53207db88a)"><g fill="#000000" fill-opacity="1"><g transform="translate(28.483496, 2.906247)"><g><path d="M 1.359375 -2.5625 L 1.640625 -2.5625 L 1.609375 0 L 1.328125 0 L 1.34375 -0.234375 L 1.328125 -0.234375 C 1.285156 -0.148438 1.21875 -0.0820312 1.125 -0.03125 C 1.03125 0.0195312 0.925781 0.046875 0.8125 0.046875 C 0.695312 0.046875 0.585938 0.015625 0.484375 -0.046875 C 0.378906 -0.117188 0.296875 -0.21875 0.234375 -0.34375 C 0.171875 -0.476562 0.140625 -0.640625 0.140625 -0.828125 C 0.140625 -0.953125 0.160156 -1.070312 0.203125 -1.1875 C 0.242188 -1.300781 0.300781 -1.394531 0.375 -1.46875 C 0.445312 -1.550781 0.523438 -1.617188 0.609375 -1.671875 C 0.703125 -1.722656 0.800781 -1.75 0.90625 -1.75 C 1 -1.75 1.085938 -1.722656 1.171875 -1.671875 C 1.253906 -1.628906 1.3125 -1.578125 1.34375 -1.515625 Z M 0.875 -0.171875 C 0.96875 -0.171875 1.054688 -0.203125 1.140625 -0.265625 C 1.234375 -0.328125 1.300781 -0.398438 1.34375 -0.484375 L 1.34375 -1.25 C 1.289062 -1.351562 1.226562 -1.421875 1.15625 -1.453125 C 1.09375 -1.492188 1.019531 -1.515625 0.9375 -1.515625 C 0.84375 -1.515625 0.753906 -1.484375 0.671875 -1.421875 C 0.597656 -1.359375 0.535156 -1.273438 0.484375 -1.171875 C 0.441406 -1.066406 0.421875 -0.957031 0.421875 -0.84375 C 0.421875 -0.632812 0.460938 -0.46875 0.546875 -0.34375 C 0.640625 -0.226562 0.75 -0.171875 0.875 -0.171875 Z M 0.875 -0.171875 "/></g></g></g></g><g fill="#000000" fill-opacity="1"><g transform="translate(30.375219, 2.906247)"><g/></g></g><g clip-path="url(#633c40a3ac)"><g fill="#000000" fill-opacity="1"><g transform="translate(31.321079, 2.906247)"><g><path d="M 0.234375 -2.359375 L 0.53125 -2.359375 L 0.53125 -2.046875 L 0.234375 -2.046875 Z M 0.25 -1.703125 L 0.515625 -1.703125 L 0.5 0 L 0.234375 0 Z M 0.25 -1.703125 "/></g></g></g></g><g fill="#000000" fill-opacity="1"><g transform="translate(32.076405, 2.906247)"><g><path d="M 1.21875 -1.59375 L 1.09375 -1.421875 C 1.039062 -1.453125 0.988281 -1.476562 0.9375 -1.5 C 0.882812 -1.53125 0.828125 -1.546875 0.765625 -1.546875 C 0.660156 -1.546875 0.578125 -1.519531 0.515625 -1.46875 C 0.453125 -1.425781 0.421875 -1.351562 0.421875 -1.25 C 0.421875 -1.207031 0.429688 -1.171875 0.453125 -1.140625 C 0.472656 -1.117188 0.492188 -1.097656 0.515625 -1.078125 C 0.535156 -1.066406 0.550781 -1.054688 0.5625 -1.046875 C 0.601562 -1.023438 0.65625 -1 0.71875 -0.96875 C 0.789062 -0.945312 0.863281 -0.914062 0.9375 -0.875 C 1.007812 -0.84375 1.070312 -0.789062 1.125 -0.71875 C 1.175781 -0.65625 1.203125 -0.570312 1.203125 -0.46875 C 1.203125 -0.363281 1.175781 -0.269531 1.125 -0.1875 C 1.070312 -0.113281 1.003906 -0.0546875 0.921875 -0.015625 C 0.835938 0.0234375 0.742188 0.046875 0.640625 0.046875 C 0.546875 0.046875 0.453125 0.03125 0.359375 0 C 0.273438 -0.03125 0.191406 -0.0703125 0.109375 -0.125 L 0.234375 -0.296875 C 0.273438 -0.265625 0.328125 -0.234375 0.390625 -0.203125 C 0.460938 -0.171875 0.535156 -0.15625 0.609375 -0.15625 C 0.703125 -0.15625 0.78125 -0.179688 0.84375 -0.234375 C 0.90625 -0.285156 0.9375 -0.347656 0.9375 -0.421875 C 0.9375 -0.503906 0.910156 -0.566406 0.859375 -0.609375 C 0.804688 -0.660156 0.734375 -0.703125 0.640625 -0.734375 C 0.535156 -0.773438 0.445312 -0.816406 0.375 -0.859375 C 0.300781 -0.898438 0.242188 -0.945312 0.203125 -1 C 0.160156 -1.0625 0.140625 -1.140625 0.140625 -1.234375 C 0.140625 -1.335938 0.164062 -1.425781 0.21875 -1.5 C 0.269531 -1.582031 0.335938 -1.644531 0.421875 -1.6875 C 0.515625 -1.726562 0.613281 -1.75 0.71875 -1.75 C 0.8125 -1.75 0.898438 -1.734375 0.984375 -1.703125 C 1.066406 -1.679688 1.144531 -1.644531 1.21875 -1.59375 Z M 1.21875 -1.59375 "/></g></g></g><g fill="#000000" fill-opacity="1"><g transform="translate(33.399931, 2.906247)"><g/></g></g><g clip-path="url(#e2508bd993)"><g fill="#000000" fill-opacity="1"><g transform="translate(34.345791, 2.906247)"><g><path d="M 0.3125 -2.359375 L 1.03125 -2.359375 C 1.175781 -2.359375 1.300781 -2.332031 1.40625 -2.28125 C 1.519531 -2.226562 1.609375 -2.15625 1.671875 -2.0625 C 1.734375 -1.976562 1.765625 -1.867188 1.765625 -1.734375 C 1.765625 -1.566406 1.710938 -1.421875 1.609375 -1.296875 C 1.515625 -1.179688 1.367188 -1.109375 1.171875 -1.078125 C 1.203125 -1.066406 1.242188 -1.039062 1.296875 -1 C 1.347656 -0.96875 1.394531 -0.921875 1.4375 -0.859375 L 2.03125 -0.078125 L 1.78125 0.078125 L 1.21875 -0.6875 C 1.164062 -0.757812 1.117188 -0.816406 1.078125 -0.859375 C 1.035156 -0.910156 1 -0.941406 0.96875 -0.953125 C 0.9375 -0.972656 0.898438 -0.988281 0.859375 -1 C 0.816406 -1.007812 0.769531 -1.015625 0.71875 -1.015625 L 0.59375 -1.015625 L 0.578125 0 L 0.28125 0 Z M 0.59375 -2.15625 L 0.59375 -1.234375 L 0.90625 -1.234375 C 1.070312 -1.234375 1.207031 -1.269531 1.3125 -1.34375 C 1.414062 -1.414062 1.46875 -1.523438 1.46875 -1.671875 C 1.46875 -1.828125 1.421875 -1.945312 1.328125 -2.03125 C 1.242188 -2.113281 1.125 -2.15625 0.96875 -2.15625 Z M 0.59375 -2.15625 "/></g></g></g></g><g fill="#000000" fill-opacity="1"><g transform="translate(36.424643, 2.906247)"><g><path d="M 1.5625 -0.890625 L 0.421875 -0.890625 L 0.421875 -0.84375 C 0.421875 -0.613281 0.460938 -0.441406 0.546875 -0.328125 C 0.640625 -0.210938 0.757812 -0.15625 0.90625 -0.15625 C 0.988281 -0.15625 1.0625 -0.171875 1.125 -0.203125 C 1.195312 -0.242188 1.253906 -0.28125 1.296875 -0.3125 C 1.347656 -0.351562 1.378906 -0.382812 1.390625 -0.40625 L 1.53125 -0.25 C 1.445312 -0.164062 1.347656 -0.09375 1.234375 -0.03125 C 1.117188 0.0195312 1 0.046875 0.875 0.046875 C 0.644531 0.046875 0.460938 -0.03125 0.328125 -0.1875 C 0.203125 -0.351562 0.140625 -0.570312 0.140625 -0.84375 C 0.140625 -1.007812 0.171875 -1.160156 0.234375 -1.296875 C 0.304688 -1.429688 0.398438 -1.539062 0.515625 -1.625 C 0.628906 -1.707031 0.757812 -1.75 0.90625 -1.75 C 1.113281 -1.75 1.273438 -1.675781 1.390625 -1.53125 C 1.503906 -1.394531 1.5625 -1.203125 1.5625 -0.953125 Z M 0.453125 -1.0625 L 1.296875 -1.0625 C 1.296875 -1.21875 1.257812 -1.335938 1.1875 -1.421875 C 1.125 -1.503906 1.03125 -1.546875 0.90625 -1.546875 C 0.800781 -1.546875 0.707031 -1.503906 0.625 -1.421875 C 0.539062 -1.335938 0.484375 -1.21875 0.453125 -1.0625 Z M 0.453125 -1.0625 "/></g></g></g><g fill="#000000" fill-opacity="1"><g transform="translate(38.125832, 2.906247)"><g><path d="M 1.28125 -1.671875 L 1.859375 -1.671875 L 1.859375 -1.484375 L 1.453125 -1.484375 C 1.492188 -1.429688 1.523438 -1.378906 1.546875 -1.328125 C 1.566406 -1.273438 1.578125 -1.222656 1.578125 -1.171875 C 1.578125 -1.066406 1.550781 -0.96875 1.5 -0.875 C 1.445312 -0.789062 1.375 -0.722656 1.28125 -0.671875 C 1.195312 -0.617188 1.097656 -0.59375 0.984375 -0.59375 C 0.878906 -0.59375 0.78125 -0.617188 0.6875 -0.671875 C 0.601562 -0.609375 0.550781 -0.5625 0.53125 -0.53125 C 0.507812 -0.507812 0.5 -0.488281 0.5 -0.46875 C 0.5 -0.4375 0.515625 -0.410156 0.546875 -0.390625 C 0.578125 -0.378906 0.613281 -0.363281 0.65625 -0.34375 C 0.707031 -0.332031 0.753906 -0.320312 0.796875 -0.3125 C 0.847656 -0.3125 0.890625 -0.304688 0.921875 -0.296875 C 0.992188 -0.285156 1.070312 -0.273438 1.15625 -0.265625 C 1.238281 -0.253906 1.320312 -0.234375 1.40625 -0.203125 C 1.53125 -0.160156 1.617188 -0.109375 1.671875 -0.046875 C 1.734375 0.015625 1.765625 0.0976562 1.765625 0.203125 C 1.765625 0.296875 1.738281 0.378906 1.6875 0.453125 C 1.632812 0.523438 1.566406 0.585938 1.484375 0.640625 C 1.410156 0.691406 1.320312 0.726562 1.21875 0.75 C 1.113281 0.78125 1.015625 0.796875 0.921875 0.796875 C 0.679688 0.796875 0.488281 0.753906 0.34375 0.671875 C 0.207031 0.597656 0.140625 0.484375 0.140625 0.328125 C 0.140625 0.242188 0.171875 0.164062 0.234375 0.09375 C 0.304688 0.0195312 0.425781 -0.0546875 0.59375 -0.140625 L 0.59375 -0.15625 C 0.445312 -0.164062 0.34375 -0.191406 0.28125 -0.234375 C 0.21875 -0.273438 0.1875 -0.320312 0.1875 -0.375 C 0.1875 -0.425781 0.210938 -0.472656 0.265625 -0.515625 C 0.328125 -0.566406 0.429688 -0.632812 0.578125 -0.71875 C 0.492188 -0.789062 0.4375 -0.859375 0.40625 -0.921875 C 0.375 -0.992188 0.359375 -1.082031 0.359375 -1.1875 C 0.359375 -1.289062 0.382812 -1.382812 0.4375 -1.46875 C 0.5 -1.550781 0.578125 -1.617188 0.671875 -1.671875 C 0.765625 -1.722656 0.863281 -1.75 0.96875 -1.75 C 1.019531 -1.75 1.070312 -1.738281 1.125 -1.71875 C 1.1875 -1.707031 1.238281 -1.691406 1.28125 -1.671875 Z M 0.953125 -0.78125 C 1.066406 -0.78125 1.148438 -0.8125 1.203125 -0.875 C 1.265625 -0.945312 1.296875 -1.046875 1.296875 -1.171875 C 1.296875 -1.285156 1.269531 -1.378906 1.21875 -1.453125 C 1.164062 -1.523438 1.082031 -1.5625 0.96875 -1.5625 C 0.875 -1.5625 0.796875 -1.523438 0.734375 -1.453125 C 0.671875 -1.378906 0.640625 -1.28125 0.640625 -1.15625 C 0.640625 -1.050781 0.664062 -0.960938 0.71875 -0.890625 C 0.78125 -0.816406 0.859375 -0.78125 0.953125 -0.78125 Z M 0.90625 0.640625 C 0.988281 0.640625 1.070312 0.625 1.15625 0.59375 C 1.25 0.5625 1.320312 0.515625 1.375 0.453125 C 1.4375 0.398438 1.46875 0.332031 1.46875 0.25 C 1.46875 0.175781 1.441406 0.117188 1.390625 0.078125 C 1.347656 0.0351562 1.273438 0.00390625 1.171875 -0.015625 C 1.078125 -0.046875 0.945312 -0.078125 0.78125 -0.109375 C 0.738281 -0.078125 0.6875 -0.046875 0.625 -0.015625 C 0.5625 0.015625 0.507812 0.0546875 0.46875 0.109375 C 0.425781 0.171875 0.40625 0.238281 0.40625 0.3125 C 0.40625 0.425781 0.453125 0.507812 0.546875 0.5625 C 0.648438 0.613281 0.769531 0.640625 0.90625 0.640625 Z M 0.90625 0.640625 "/></g></g></g><g fill="#000000" fill-opacity="1"><g transform="translate(40.017555, 2.906247)"><g><path d="M 1.390625 -1.296875 C 1.390625 -1.148438 1.382812 -1 1.375 -0.84375 C 1.363281 -0.6875 1.359375 -0.539062 1.359375 -0.40625 C 1.359375 -0.332031 1.363281 -0.269531 1.375 -0.21875 C 1.394531 -0.175781 1.429688 -0.15625 1.484375 -0.15625 C 1.515625 -0.15625 1.539062 -0.160156 1.5625 -0.171875 C 1.582031 -0.179688 1.601562 -0.195312 1.625 -0.21875 L 1.703125 -0.078125 C 1.660156 -0.0351562 1.613281 -0.00390625 1.5625 0.015625 C 1.507812 0.0351562 1.453125 0.046875 1.390625 0.046875 C 1.316406 0.046875 1.253906 0.0195312 1.203125 -0.03125 C 1.160156 -0.09375 1.140625 -0.160156 1.140625 -0.234375 C 1.066406 -0.148438 0.988281 -0.0820312 0.90625 -0.03125 C 0.832031 0.0195312 0.738281 0.046875 0.625 0.046875 C 0.476562 0.046875 0.359375 0 0.265625 -0.09375 C 0.179688 -0.1875 0.140625 -0.300781 0.140625 -0.4375 C 0.140625 -0.625 0.222656 -0.769531 0.390625 -0.875 C 0.566406 -0.976562 0.8125 -1.035156 1.125 -1.046875 L 1.140625 -1.28125 C 1.140625 -1.34375 1.117188 -1.394531 1.078125 -1.4375 C 1.035156 -1.488281 0.96875 -1.515625 0.875 -1.515625 C 0.789062 -1.515625 0.707031 -1.492188 0.625 -1.453125 C 0.550781 -1.410156 0.472656 -1.351562 0.390625 -1.28125 L 0.265625 -1.46875 C 0.359375 -1.519531 0.4375 -1.566406 0.5 -1.609375 C 0.5625 -1.648438 0.628906 -1.679688 0.703125 -1.703125 C 0.773438 -1.734375 0.863281 -1.75 0.96875 -1.75 C 1.101562 -1.75 1.207031 -1.707031 1.28125 -1.625 C 1.351562 -1.550781 1.390625 -1.441406 1.390625 -1.296875 Z M 0.71875 -0.15625 C 0.800781 -0.15625 0.875 -0.179688 0.9375 -0.234375 C 1 -0.285156 1.054688 -0.34375 1.109375 -0.40625 C 1.117188 -0.488281 1.125 -0.566406 1.125 -0.640625 C 1.125 -0.722656 1.125 -0.804688 1.125 -0.890625 C 1.101562 -0.878906 1.066406 -0.867188 1.015625 -0.859375 C 0.972656 -0.859375 0.898438 -0.847656 0.796875 -0.828125 C 0.671875 -0.796875 0.570312 -0.75 0.5 -0.6875 C 0.4375 -0.625 0.40625 -0.546875 0.40625 -0.453125 C 0.40625 -0.347656 0.429688 -0.269531 0.484375 -0.21875 C 0.535156 -0.175781 0.613281 -0.15625 0.71875 -0.15625 Z M 0.71875 -0.15625 "/></g></g></g><g clip-path="url(#4887671551)"><g fill="#000000" fill-opacity="1"><g transform="translate(41.718744, 2.906247)"><g><path d="M 0.25 -2.5625 L 0.53125 -2.5625 L 0.5 0 L 0.234375 0 Z M 0.25 -2.5625 "/></g></g></g></g><g clip-path="url(#ec9273974f)"><g fill="#000000" fill-opacity="1"><g transform="translate(42.47407, 2.906247)"><g><path d="M 0.3125 -0.328125 L 0.625 -0.328125 L 0.625 0 L 0.3125 0 Z M 0.3125 -0.328125 "/></g></g></g></g></g></g></svg>