<svg xmlns="http://www.w3.org/2000/svg" viewBox="0 0 375 375" width="375" height="375">
  <defs>
    <clipPath id="tr-clip">
      <rect x="0" y="0" width="246" height="319"/>
    </clipPath>
  </defs>
  
  <!-- White background -->
  <rect x="0" y="0" width="375" height="375" fill="#ffffff"/>
  
  <!-- Letter T -->
  <g transform="matrix(1, 0, 0, 1, 0, 56)">
    <g clip-path="url(#tr-clip)">
      <g fill="#000000" fill-opacity="1">
        <g transform="translate(0.0000045, 253.932425)">
          <path d="M 10.90625 -178.390625 L 6.609375 -178.390625 L 17.515625 -240.828125 L 226.953125 -240.828125 L 237.859375 -178.390625 L 233.5625 -178.390625 C 230.914062 -193.148438 226.398438 -204.769531 220.015625 -213.25 C 213.628906 -221.726562 205.703125 -227.726562 196.234375 -231.25 C 186.765625 -234.769531 176.082031 -236.53125 164.1875 -236.53125 L 140.40625 -236.53125 L 140.40625 -22.140625 C 140.40625 -14.648438 142.273438 -9.800781 146.015625 -7.59375 C 149.765625 -5.394531 155.601562 -4.296875 163.53125 -4.296875 L 163.53125 0 L 81.265625 0 L 81.265625 -4.296875 C 89.191406 -4.296875 94.972656 -5.394531 98.609375 -7.59375 C 102.242188 -9.800781 104.0625 -14.648438 104.0625 -22.140625 L 104.0625 -236.53125 L 79.953125 -236.53125 C 68.273438 -236.53125 57.703125 -234.769531 48.234375 -231.25 C 38.765625 -227.726562 30.890625 -221.726562 24.609375 -213.25 C 18.335938 -204.769531 13.769531 -193.148438 10.90625 -178.390625 Z"/>
        </g>
      </g>
    </g>
  </g>
  
  <!-- Letter R -->
  <g fill="#000000" fill-opacity="1">
    <g transform="translate(99.66864, 304.121246)">
      <path d="M 58.3125 -187.734375 C 50.40625 -204.171875 42.5 -214.914062 34.59375 -219.96875 C 26.695312 -225.03125 16.742188 -227.5625 4.734375 -227.5625 L 4.734375 -233.71875 L 124.6875 -233.71875 L 124.6875 -227.5625 C 114.570312 -227.5625 107.378906 -225.742188 103.109375 -222.109375 C 98.847656 -218.472656 98.769531 -212.546875 102.875 -204.328125 L 170.671875 -64.46875 L 226.140625 -214.28125 C 228.660156 -220.601562 227.3125 -224.394531 222.09375 -225.65625 C 216.882812 -226.925781 210.644531 -227.5625 203.375 -227.5625 L 203.375 -233.71875 L 265.953125 -233.71875 L 265.953125 -227.5625 C 257.421875 -227.5625 250.3125 -226.847656 244.625 -225.421875 C 238.9375 -224.003906 234.828125 -219.34375 232.296875 -211.4375 L 157.875 0 L 148.859375 0 Z"/>
    </g>
  </g>
</svg>